<mxfile host="Electron" agent="Mozilla/5.0 (Macintosh; Intel Mac OS X 10_15_7) AppleWebKit/537.36 (KHTML, like Gecko) draw.io/26.0.9 Chrome/128.0.6613.186 Electron/32.2.5 Safari/537.36" version="26.0.9">
  <diagram name="Page-1" id="-H_mtQnk-PTXWXPvYvuk">
    <mxGraphModel dx="1094" dy="2102" grid="1" gridSize="10" guides="1" tooltips="1" connect="1" arrows="1" fold="1" page="1" pageScale="1" pageWidth="1169" pageHeight="827" math="0" shadow="0">
      <root>
        <mxCell id="0" />
        <mxCell id="1" parent="0" />
        <mxCell id="Q93zhfyF3jCMq2FZPv7L-8" style="edgeStyle=orthogonalEdgeStyle;rounded=0;orthogonalLoop=1;jettySize=auto;html=1;" edge="1" parent="1" source="Q93zhfyF3jCMq2FZPv7L-2" target="Q93zhfyF3jCMq2FZPv7L-7">
          <mxGeometry relative="1" as="geometry">
            <Array as="points">
              <mxPoint x="570" y="-190" />
              <mxPoint x="570" y="-190" />
            </Array>
          </mxGeometry>
        </mxCell>
        <mxCell id="Q93zhfyF3jCMq2FZPv7L-2" value="" style="rounded=1;whiteSpace=wrap;html=1;" vertex="1" parent="1">
          <mxGeometry x="175" y="-220" width="315" height="200" as="geometry" />
        </mxCell>
        <mxCell id="MkLCPHEsa8idqYGvZBbp-2" value="" style="rounded=1;whiteSpace=wrap;html=1;" parent="1" vertex="1">
          <mxGeometry x="560" y="-110" width="380" height="150" as="geometry" />
        </mxCell>
        <mxCell id="ByMqFv9Bi4hKXvn-hJ8M-213" style="edgeStyle=orthogonalEdgeStyle;rounded=0;orthogonalLoop=1;jettySize=auto;html=1;shape=link;" parent="1" source="zA23MoTUsTF4_91t8viU-2" target="ByMqFv9Bi4hKXvn-hJ8M-105" edge="1">
          <mxGeometry relative="1" as="geometry" />
        </mxCell>
        <mxCell id="zA23MoTUsTF4_91t8viU-2" value="" style="shape=cylinder3;whiteSpace=wrap;html=1;boundedLbl=1;backgroundOutline=1;size=15;" parent="1" vertex="1">
          <mxGeometry x="165" y="250" width="210" height="190" as="geometry" />
        </mxCell>
        <mxCell id="ByMqFv9Bi4hKXvn-hJ8M-122" value="" style="edgeStyle=orthogonalEdgeStyle;rounded=0;orthogonalLoop=1;jettySize=auto;html=1;exitX=0.5;exitY=1;exitDx=0;exitDy=0;" parent="1" source="Q93zhfyF3jCMq2FZPv7L-2" target="ByMqFv9Bi4hKXvn-hJ8M-119" edge="1">
          <mxGeometry relative="1" as="geometry" />
        </mxCell>
        <mxCell id="MkLCPHEsa8idqYGvZBbp-6" style="edgeStyle=orthogonalEdgeStyle;rounded=0;orthogonalLoop=1;jettySize=auto;html=1;exitX=1.003;exitY=0.385;exitDx=0;exitDy=0;exitPerimeter=0;" parent="1" source="Q93zhfyF3jCMq2FZPv7L-2" target="MkLCPHEsa8idqYGvZBbp-2" edge="1">
          <mxGeometry relative="1" as="geometry">
            <mxPoint x="510" y="-139" as="sourcePoint" />
          </mxGeometry>
        </mxCell>
        <mxCell id="zA23MoTUsTF4_91t8viU-3" value="pymongo-api-3" style="rounded=1;whiteSpace=wrap;html=1;" parent="1" vertex="1">
          <mxGeometry x="385" y="-160" width="80" height="40" as="geometry" />
        </mxCell>
        <mxCell id="ByMqFv9Bi4hKXvn-hJ8M-29" value="helloDoc" style="shape=table;startSize=30;container=1;collapsible=0;childLayout=tableLayout;strokeColor=default;fontSize=16;" parent="1" vertex="1">
          <mxGeometry x="222.5" y="302" width="105" height="111" as="geometry" />
        </mxCell>
        <mxCell id="ByMqFv9Bi4hKXvn-hJ8M-30" value="" style="shape=tableRow;horizontal=0;startSize=0;swimlaneHead=0;swimlaneBody=0;strokeColor=inherit;top=0;left=0;bottom=0;right=0;collapsible=0;dropTarget=0;fillColor=none;points=[[0,0.5],[1,0.5]];portConstraint=eastwest;fontSize=16;" parent="ByMqFv9Bi4hKXvn-hJ8M-29" vertex="1">
          <mxGeometry y="30" width="105" height="30" as="geometry" />
        </mxCell>
        <mxCell id="ByMqFv9Bi4hKXvn-hJ8M-31" value="age:1" style="shape=partialRectangle;html=1;whiteSpace=wrap;connectable=0;strokeColor=inherit;overflow=hidden;fillColor=none;top=0;left=0;bottom=0;right=0;pointerEvents=1;fontSize=16;" parent="ByMqFv9Bi4hKXvn-hJ8M-30" vertex="1">
          <mxGeometry width="44" height="30" as="geometry">
            <mxRectangle width="44" height="30" as="alternateBounds" />
          </mxGeometry>
        </mxCell>
        <mxCell id="ByMqFv9Bi4hKXvn-hJ8M-32" value="ly1" style="shape=partialRectangle;html=1;whiteSpace=wrap;connectable=0;strokeColor=inherit;overflow=hidden;fillColor=none;top=0;left=0;bottom=0;right=0;pointerEvents=1;fontSize=16;" parent="ByMqFv9Bi4hKXvn-hJ8M-30" vertex="1">
          <mxGeometry x="44" width="61" height="30" as="geometry">
            <mxRectangle width="61" height="30" as="alternateBounds" />
          </mxGeometry>
        </mxCell>
        <mxCell id="ByMqFv9Bi4hKXvn-hJ8M-34" value="" style="shape=tableRow;horizontal=0;startSize=0;swimlaneHead=0;swimlaneBody=0;strokeColor=inherit;top=0;left=0;bottom=0;right=0;collapsible=0;dropTarget=0;fillColor=none;points=[[0,0.5],[1,0.5]];portConstraint=eastwest;fontSize=16;" parent="ByMqFv9Bi4hKXvn-hJ8M-29" vertex="1">
          <mxGeometry y="60" width="105" height="27" as="geometry" />
        </mxCell>
        <mxCell id="ByMqFv9Bi4hKXvn-hJ8M-35" value="age:3" style="shape=partialRectangle;html=1;whiteSpace=wrap;connectable=0;strokeColor=inherit;overflow=hidden;fillColor=none;top=0;left=0;bottom=0;right=0;pointerEvents=1;fontSize=16;" parent="ByMqFv9Bi4hKXvn-hJ8M-34" vertex="1">
          <mxGeometry width="44" height="27" as="geometry">
            <mxRectangle width="44" height="27" as="alternateBounds" />
          </mxGeometry>
        </mxCell>
        <mxCell id="ByMqFv9Bi4hKXvn-hJ8M-36" value="ly3" style="shape=partialRectangle;html=1;whiteSpace=wrap;connectable=0;strokeColor=inherit;overflow=hidden;fillColor=none;top=0;left=0;bottom=0;right=0;pointerEvents=1;fontSize=16;" parent="ByMqFv9Bi4hKXvn-hJ8M-34" vertex="1">
          <mxGeometry x="44" width="61" height="27" as="geometry">
            <mxRectangle width="61" height="27" as="alternateBounds" />
          </mxGeometry>
        </mxCell>
        <mxCell id="ByMqFv9Bi4hKXvn-hJ8M-38" value="" style="shape=tableRow;horizontal=0;startSize=0;swimlaneHead=0;swimlaneBody=0;strokeColor=inherit;top=0;left=0;bottom=0;right=0;collapsible=0;dropTarget=0;fillColor=none;points=[[0,0.5],[1,0.5]];portConstraint=eastwest;fontSize=16;" parent="ByMqFv9Bi4hKXvn-hJ8M-29" vertex="1">
          <mxGeometry y="87" width="105" height="24" as="geometry" />
        </mxCell>
        <mxCell id="ByMqFv9Bi4hKXvn-hJ8M-39" value="age:5" style="shape=partialRectangle;html=1;whiteSpace=wrap;connectable=0;strokeColor=inherit;overflow=hidden;fillColor=none;top=0;left=0;bottom=0;right=0;pointerEvents=1;fontSize=16;" parent="ByMqFv9Bi4hKXvn-hJ8M-38" vertex="1">
          <mxGeometry width="44" height="24" as="geometry">
            <mxRectangle width="44" height="24" as="alternateBounds" />
          </mxGeometry>
        </mxCell>
        <mxCell id="ByMqFv9Bi4hKXvn-hJ8M-40" value="ly5" style="shape=partialRectangle;html=1;whiteSpace=wrap;connectable=0;strokeColor=inherit;overflow=hidden;fillColor=none;top=0;left=0;bottom=0;right=0;pointerEvents=1;fontSize=16;" parent="ByMqFv9Bi4hKXvn-hJ8M-38" vertex="1">
          <mxGeometry x="44" width="61" height="24" as="geometry">
            <mxRectangle width="61" height="24" as="alternateBounds" />
          </mxGeometry>
        </mxCell>
        <mxCell id="ByMqFv9Bi4hKXvn-hJ8M-96" value="Шард 1 - первичный сервер" style="text;strokeColor=none;align=center;fillColor=none;html=1;verticalAlign=middle;whiteSpace=wrap;rounded=0;" parent="1" vertex="1">
          <mxGeometry x="205" y="250" width="140" height="30" as="geometry" />
        </mxCell>
        <mxCell id="ByMqFv9Bi4hKXvn-hJ8M-105" value="" style="shape=cylinder3;whiteSpace=wrap;html=1;boundedLbl=1;backgroundOutline=1;size=15;" parent="1" vertex="1">
          <mxGeometry x="460" y="250" width="210" height="190" as="geometry" />
        </mxCell>
        <mxCell id="ByMqFv9Bi4hKXvn-hJ8M-42" value="helloDoc" style="shape=table;startSize=30;container=1;collapsible=0;childLayout=tableLayout;strokeColor=default;fontSize=16;" parent="1" vertex="1">
          <mxGeometry x="529.5" y="302" width="100.5" height="110" as="geometry" />
        </mxCell>
        <mxCell id="ByMqFv9Bi4hKXvn-hJ8M-58" value="" style="shape=tableRow;horizontal=0;startSize=0;swimlaneHead=0;swimlaneBody=0;strokeColor=inherit;top=0;left=0;bottom=0;right=0;collapsible=0;dropTarget=0;fillColor=none;points=[[0,0.5],[1,0.5]];portConstraint=eastwest;fontSize=16;" parent="ByMqFv9Bi4hKXvn-hJ8M-42" vertex="1">
          <mxGeometry y="30" width="100.5" height="27" as="geometry" />
        </mxCell>
        <mxCell id="ByMqFv9Bi4hKXvn-hJ8M-59" value="age:2" style="shape=partialRectangle;html=1;whiteSpace=wrap;connectable=0;strokeColor=inherit;overflow=hidden;fillColor=none;top=0;left=0;bottom=0;right=0;pointerEvents=1;fontSize=16;" parent="ByMqFv9Bi4hKXvn-hJ8M-58" vertex="1">
          <mxGeometry width="63" height="27" as="geometry">
            <mxRectangle width="63" height="27" as="alternateBounds" />
          </mxGeometry>
        </mxCell>
        <mxCell id="ByMqFv9Bi4hKXvn-hJ8M-60" value="ly2" style="shape=partialRectangle;html=1;whiteSpace=wrap;connectable=0;strokeColor=inherit;overflow=hidden;fillColor=none;top=0;left=0;bottom=0;right=0;pointerEvents=1;fontSize=16;" parent="ByMqFv9Bi4hKXvn-hJ8M-58" vertex="1">
          <mxGeometry x="63" width="38" height="27" as="geometry">
            <mxRectangle width="38" height="27" as="alternateBounds" />
          </mxGeometry>
        </mxCell>
        <mxCell id="ByMqFv9Bi4hKXvn-hJ8M-47" value="" style="shape=tableRow;horizontal=0;startSize=0;swimlaneHead=0;swimlaneBody=0;strokeColor=inherit;top=0;left=0;bottom=0;right=0;collapsible=0;dropTarget=0;fillColor=none;points=[[0,0.5],[1,0.5]];portConstraint=eastwest;fontSize=16;" parent="ByMqFv9Bi4hKXvn-hJ8M-42" vertex="1">
          <mxGeometry y="57" width="100.5" height="26" as="geometry" />
        </mxCell>
        <mxCell id="ByMqFv9Bi4hKXvn-hJ8M-48" value="age:4" style="shape=partialRectangle;html=1;whiteSpace=wrap;connectable=0;strokeColor=inherit;overflow=hidden;fillColor=none;top=0;left=0;bottom=0;right=0;pointerEvents=1;fontSize=16;" parent="ByMqFv9Bi4hKXvn-hJ8M-47" vertex="1">
          <mxGeometry width="63" height="26" as="geometry">
            <mxRectangle width="63" height="26" as="alternateBounds" />
          </mxGeometry>
        </mxCell>
        <mxCell id="ByMqFv9Bi4hKXvn-hJ8M-49" value="ly4" style="shape=partialRectangle;html=1;whiteSpace=wrap;connectable=0;strokeColor=inherit;overflow=hidden;fillColor=none;top=0;left=0;bottom=0;right=0;pointerEvents=1;fontSize=16;" parent="ByMqFv9Bi4hKXvn-hJ8M-47" vertex="1">
          <mxGeometry x="63" width="38" height="26" as="geometry">
            <mxRectangle width="38" height="26" as="alternateBounds" />
          </mxGeometry>
        </mxCell>
        <mxCell id="ByMqFv9Bi4hKXvn-hJ8M-51" value="" style="shape=tableRow;horizontal=0;startSize=0;swimlaneHead=0;swimlaneBody=0;strokeColor=inherit;top=0;left=0;bottom=0;right=0;collapsible=0;dropTarget=0;fillColor=none;points=[[0,0.5],[1,0.5]];portConstraint=eastwest;fontSize=16;" parent="ByMqFv9Bi4hKXvn-hJ8M-42" vertex="1">
          <mxGeometry y="83" width="100.5" height="27" as="geometry" />
        </mxCell>
        <mxCell id="ByMqFv9Bi4hKXvn-hJ8M-52" value="age:6" style="shape=partialRectangle;html=1;whiteSpace=wrap;connectable=0;strokeColor=inherit;overflow=hidden;fillColor=none;top=0;left=0;bottom=0;right=0;pointerEvents=1;fontSize=16;" parent="ByMqFv9Bi4hKXvn-hJ8M-51" vertex="1">
          <mxGeometry width="63" height="27" as="geometry">
            <mxRectangle width="63" height="27" as="alternateBounds" />
          </mxGeometry>
        </mxCell>
        <mxCell id="ByMqFv9Bi4hKXvn-hJ8M-53" value="ly6" style="shape=partialRectangle;html=1;whiteSpace=wrap;connectable=0;strokeColor=inherit;overflow=hidden;fillColor=none;top=0;left=0;bottom=0;right=0;pointerEvents=1;fontSize=16;" parent="ByMqFv9Bi4hKXvn-hJ8M-51" vertex="1">
          <mxGeometry x="63" width="38" height="27" as="geometry">
            <mxRectangle width="38" height="27" as="alternateBounds" />
          </mxGeometry>
        </mxCell>
        <mxCell id="ByMqFv9Bi4hKXvn-hJ8M-123" style="edgeStyle=orthogonalEdgeStyle;rounded=0;orthogonalLoop=1;jettySize=auto;html=1;" parent="1" source="ByMqFv9Bi4hKXvn-hJ8M-119" target="ByMqFv9Bi4hKXvn-hJ8M-120" edge="1">
          <mxGeometry relative="1" as="geometry" />
        </mxCell>
        <mxCell id="ByMqFv9Bi4hKXvn-hJ8M-125" style="edgeStyle=orthogonalEdgeStyle;rounded=0;orthogonalLoop=1;jettySize=auto;html=1;entryX=0.5;entryY=0;entryDx=0;entryDy=0;" parent="1" source="ByMqFv9Bi4hKXvn-hJ8M-119" target="ByMqFv9Bi4hKXvn-hJ8M-121" edge="1">
          <mxGeometry relative="1" as="geometry" />
        </mxCell>
        <mxCell id="ByMqFv9Bi4hKXvn-hJ8M-119" value="Драйвер" style="rounded=1;whiteSpace=wrap;html=1;" parent="1" vertex="1">
          <mxGeometry x="380" y="80" width="80" height="35" as="geometry" />
        </mxCell>
        <mxCell id="ByMqFv9Bi4hKXvn-hJ8M-127" style="edgeStyle=orthogonalEdgeStyle;rounded=0;orthogonalLoop=1;jettySize=auto;html=1;" parent="1" source="ByMqFv9Bi4hKXvn-hJ8M-120" target="zA23MoTUsTF4_91t8viU-2" edge="1">
          <mxGeometry relative="1" as="geometry" />
        </mxCell>
        <mxCell id="ByMqFv9Bi4hKXvn-hJ8M-120" value="Роутер" style="rounded=1;whiteSpace=wrap;html=1;" parent="1" vertex="1">
          <mxGeometry x="230" y="150" width="80" height="35" as="geometry" />
        </mxCell>
        <mxCell id="ByMqFv9Bi4hKXvn-hJ8M-128" style="edgeStyle=orthogonalEdgeStyle;rounded=0;orthogonalLoop=1;jettySize=auto;html=1;" parent="1" source="ByMqFv9Bi4hKXvn-hJ8M-121" target="ByMqFv9Bi4hKXvn-hJ8M-105" edge="1">
          <mxGeometry relative="1" as="geometry" />
        </mxCell>
        <mxCell id="ByMqFv9Bi4hKXvn-hJ8M-131" style="edgeStyle=orthogonalEdgeStyle;rounded=0;orthogonalLoop=1;jettySize=auto;html=1;entryX=0;entryY=0.5;entryDx=0;entryDy=0;" parent="1" source="ByMqFv9Bi4hKXvn-hJ8M-121" target="ByMqFv9Bi4hKXvn-hJ8M-129" edge="1">
          <mxGeometry relative="1" as="geometry" />
        </mxCell>
        <mxCell id="ByMqFv9Bi4hKXvn-hJ8M-121" value="Роутер" style="rounded=1;whiteSpace=wrap;html=1;" parent="1" vertex="1">
          <mxGeometry x="525" y="180" width="80" height="35" as="geometry" />
        </mxCell>
        <mxCell id="ByMqFv9Bi4hKXvn-hJ8M-124" style="edgeStyle=orthogonalEdgeStyle;rounded=0;orthogonalLoop=1;jettySize=auto;html=1;exitX=1;exitY=0.75;exitDx=0;exitDy=0;entryX=1;entryY=0.5;entryDx=0;entryDy=0;" parent="1" source="ByMqFv9Bi4hKXvn-hJ8M-119" target="ByMqFv9Bi4hKXvn-hJ8M-119" edge="1">
          <mxGeometry relative="1" as="geometry" />
        </mxCell>
        <mxCell id="ByMqFv9Bi4hKXvn-hJ8M-129" value="Конфигурационный сервер" style="rounded=1;whiteSpace=wrap;html=1;" parent="1" vertex="1">
          <mxGeometry x="690" y="80" width="150" height="35" as="geometry" />
        </mxCell>
        <mxCell id="ByMqFv9Bi4hKXvn-hJ8M-133" style="edgeStyle=orthogonalEdgeStyle;rounded=0;orthogonalLoop=1;jettySize=auto;html=1;entryX=0.5;entryY=1;entryDx=0;entryDy=0;exitX=1;exitY=0.5;exitDx=0;exitDy=0;" parent="1" source="ByMqFv9Bi4hKXvn-hJ8M-120" target="ByMqFv9Bi4hKXvn-hJ8M-129" edge="1">
          <mxGeometry relative="1" as="geometry">
            <mxPoint x="310" y="199.7238095238094" as="sourcePoint" />
            <mxPoint x="772.9499999999998" y="149.99999999999994" as="targetPoint" />
          </mxGeometry>
        </mxCell>
        <mxCell id="ByMqFv9Bi4hKXvn-hJ8M-134" style="edgeStyle=orthogonalEdgeStyle;rounded=0;orthogonalLoop=1;jettySize=auto;html=1;entryX=0.877;entryY=0.917;entryDx=0;entryDy=0;entryPerimeter=0;" parent="1" source="ByMqFv9Bi4hKXvn-hJ8M-105" target="ByMqFv9Bi4hKXvn-hJ8M-129" edge="1">
          <mxGeometry relative="1" as="geometry" />
        </mxCell>
        <mxCell id="ByMqFv9Bi4hKXvn-hJ8M-150" value="" style="shape=cylinder3;whiteSpace=wrap;html=1;boundedLbl=1;backgroundOutline=1;size=15;" parent="1" vertex="1">
          <mxGeometry x="170" y="470" width="210" height="190" as="geometry" />
        </mxCell>
        <mxCell id="ByMqFv9Bi4hKXvn-hJ8M-151" value="helloDoc" style="shape=table;startSize=30;container=1;collapsible=0;childLayout=tableLayout;strokeColor=default;fontSize=16;" parent="1" vertex="1">
          <mxGeometry x="227.5" y="522" width="105" height="111" as="geometry" />
        </mxCell>
        <mxCell id="ByMqFv9Bi4hKXvn-hJ8M-152" value="" style="shape=tableRow;horizontal=0;startSize=0;swimlaneHead=0;swimlaneBody=0;strokeColor=inherit;top=0;left=0;bottom=0;right=0;collapsible=0;dropTarget=0;fillColor=none;points=[[0,0.5],[1,0.5]];portConstraint=eastwest;fontSize=16;" parent="ByMqFv9Bi4hKXvn-hJ8M-151" vertex="1">
          <mxGeometry y="30" width="105" height="30" as="geometry" />
        </mxCell>
        <mxCell id="ByMqFv9Bi4hKXvn-hJ8M-153" value="age:1" style="shape=partialRectangle;html=1;whiteSpace=wrap;connectable=0;strokeColor=inherit;overflow=hidden;fillColor=none;top=0;left=0;bottom=0;right=0;pointerEvents=1;fontSize=16;" parent="ByMqFv9Bi4hKXvn-hJ8M-152" vertex="1">
          <mxGeometry width="44" height="30" as="geometry">
            <mxRectangle width="44" height="30" as="alternateBounds" />
          </mxGeometry>
        </mxCell>
        <mxCell id="ByMqFv9Bi4hKXvn-hJ8M-154" value="ly1" style="shape=partialRectangle;html=1;whiteSpace=wrap;connectable=0;strokeColor=inherit;overflow=hidden;fillColor=none;top=0;left=0;bottom=0;right=0;pointerEvents=1;fontSize=16;" parent="ByMqFv9Bi4hKXvn-hJ8M-152" vertex="1">
          <mxGeometry x="44" width="61" height="30" as="geometry">
            <mxRectangle width="61" height="30" as="alternateBounds" />
          </mxGeometry>
        </mxCell>
        <mxCell id="ByMqFv9Bi4hKXvn-hJ8M-155" value="" style="shape=tableRow;horizontal=0;startSize=0;swimlaneHead=0;swimlaneBody=0;strokeColor=inherit;top=0;left=0;bottom=0;right=0;collapsible=0;dropTarget=0;fillColor=none;points=[[0,0.5],[1,0.5]];portConstraint=eastwest;fontSize=16;" parent="ByMqFv9Bi4hKXvn-hJ8M-151" vertex="1">
          <mxGeometry y="60" width="105" height="27" as="geometry" />
        </mxCell>
        <mxCell id="ByMqFv9Bi4hKXvn-hJ8M-156" value="age:3" style="shape=partialRectangle;html=1;whiteSpace=wrap;connectable=0;strokeColor=inherit;overflow=hidden;fillColor=none;top=0;left=0;bottom=0;right=0;pointerEvents=1;fontSize=16;" parent="ByMqFv9Bi4hKXvn-hJ8M-155" vertex="1">
          <mxGeometry width="44" height="27" as="geometry">
            <mxRectangle width="44" height="27" as="alternateBounds" />
          </mxGeometry>
        </mxCell>
        <mxCell id="ByMqFv9Bi4hKXvn-hJ8M-157" value="ly3" style="shape=partialRectangle;html=1;whiteSpace=wrap;connectable=0;strokeColor=inherit;overflow=hidden;fillColor=none;top=0;left=0;bottom=0;right=0;pointerEvents=1;fontSize=16;" parent="ByMqFv9Bi4hKXvn-hJ8M-155" vertex="1">
          <mxGeometry x="44" width="61" height="27" as="geometry">
            <mxRectangle width="61" height="27" as="alternateBounds" />
          </mxGeometry>
        </mxCell>
        <mxCell id="ByMqFv9Bi4hKXvn-hJ8M-158" value="" style="shape=tableRow;horizontal=0;startSize=0;swimlaneHead=0;swimlaneBody=0;strokeColor=inherit;top=0;left=0;bottom=0;right=0;collapsible=0;dropTarget=0;fillColor=none;points=[[0,0.5],[1,0.5]];portConstraint=eastwest;fontSize=16;" parent="ByMqFv9Bi4hKXvn-hJ8M-151" vertex="1">
          <mxGeometry y="87" width="105" height="24" as="geometry" />
        </mxCell>
        <mxCell id="ByMqFv9Bi4hKXvn-hJ8M-159" value="age:5" style="shape=partialRectangle;html=1;whiteSpace=wrap;connectable=0;strokeColor=inherit;overflow=hidden;fillColor=none;top=0;left=0;bottom=0;right=0;pointerEvents=1;fontSize=16;" parent="ByMqFv9Bi4hKXvn-hJ8M-158" vertex="1">
          <mxGeometry width="44" height="24" as="geometry">
            <mxRectangle width="44" height="24" as="alternateBounds" />
          </mxGeometry>
        </mxCell>
        <mxCell id="ByMqFv9Bi4hKXvn-hJ8M-160" value="ly5" style="shape=partialRectangle;html=1;whiteSpace=wrap;connectable=0;strokeColor=inherit;overflow=hidden;fillColor=none;top=0;left=0;bottom=0;right=0;pointerEvents=1;fontSize=16;" parent="ByMqFv9Bi4hKXvn-hJ8M-158" vertex="1">
          <mxGeometry x="44" width="61" height="24" as="geometry">
            <mxRectangle width="61" height="24" as="alternateBounds" />
          </mxGeometry>
        </mxCell>
        <mxCell id="ByMqFv9Bi4hKXvn-hJ8M-161" value="Шард 1 - вторичный сервер" style="text;strokeColor=none;align=center;fillColor=none;html=1;verticalAlign=middle;whiteSpace=wrap;rounded=0;" parent="1" vertex="1">
          <mxGeometry x="210" y="470" width="140" height="30" as="geometry" />
        </mxCell>
        <mxCell id="ByMqFv9Bi4hKXvn-hJ8M-217" style="edgeStyle=orthogonalEdgeStyle;rounded=0;orthogonalLoop=1;jettySize=auto;html=1;shape=link;" parent="1" source="ByMqFv9Bi4hKXvn-hJ8M-162" target="ByMqFv9Bi4hKXvn-hJ8M-199" edge="1">
          <mxGeometry relative="1" as="geometry" />
        </mxCell>
        <mxCell id="ByMqFv9Bi4hKXvn-hJ8M-162" value="" style="shape=cylinder3;whiteSpace=wrap;html=1;boundedLbl=1;backgroundOutline=1;size=15;" parent="1" vertex="1">
          <mxGeometry x="175" y="700" width="210" height="190" as="geometry" />
        </mxCell>
        <mxCell id="ByMqFv9Bi4hKXvn-hJ8M-163" value="helloDoc" style="shape=table;startSize=30;container=1;collapsible=0;childLayout=tableLayout;strokeColor=default;fontSize=16;" parent="1" vertex="1">
          <mxGeometry x="232.5" y="752" width="105" height="111" as="geometry" />
        </mxCell>
        <mxCell id="ByMqFv9Bi4hKXvn-hJ8M-164" value="" style="shape=tableRow;horizontal=0;startSize=0;swimlaneHead=0;swimlaneBody=0;strokeColor=inherit;top=0;left=0;bottom=0;right=0;collapsible=0;dropTarget=0;fillColor=none;points=[[0,0.5],[1,0.5]];portConstraint=eastwest;fontSize=16;" parent="ByMqFv9Bi4hKXvn-hJ8M-163" vertex="1">
          <mxGeometry y="30" width="105" height="30" as="geometry" />
        </mxCell>
        <mxCell id="ByMqFv9Bi4hKXvn-hJ8M-165" value="age:1" style="shape=partialRectangle;html=1;whiteSpace=wrap;connectable=0;strokeColor=inherit;overflow=hidden;fillColor=none;top=0;left=0;bottom=0;right=0;pointerEvents=1;fontSize=16;" parent="ByMqFv9Bi4hKXvn-hJ8M-164" vertex="1">
          <mxGeometry width="44" height="30" as="geometry">
            <mxRectangle width="44" height="30" as="alternateBounds" />
          </mxGeometry>
        </mxCell>
        <mxCell id="ByMqFv9Bi4hKXvn-hJ8M-166" value="ly1" style="shape=partialRectangle;html=1;whiteSpace=wrap;connectable=0;strokeColor=inherit;overflow=hidden;fillColor=none;top=0;left=0;bottom=0;right=0;pointerEvents=1;fontSize=16;" parent="ByMqFv9Bi4hKXvn-hJ8M-164" vertex="1">
          <mxGeometry x="44" width="61" height="30" as="geometry">
            <mxRectangle width="61" height="30" as="alternateBounds" />
          </mxGeometry>
        </mxCell>
        <mxCell id="ByMqFv9Bi4hKXvn-hJ8M-167" value="" style="shape=tableRow;horizontal=0;startSize=0;swimlaneHead=0;swimlaneBody=0;strokeColor=inherit;top=0;left=0;bottom=0;right=0;collapsible=0;dropTarget=0;fillColor=none;points=[[0,0.5],[1,0.5]];portConstraint=eastwest;fontSize=16;" parent="ByMqFv9Bi4hKXvn-hJ8M-163" vertex="1">
          <mxGeometry y="60" width="105" height="27" as="geometry" />
        </mxCell>
        <mxCell id="ByMqFv9Bi4hKXvn-hJ8M-168" value="age:3" style="shape=partialRectangle;html=1;whiteSpace=wrap;connectable=0;strokeColor=inherit;overflow=hidden;fillColor=none;top=0;left=0;bottom=0;right=0;pointerEvents=1;fontSize=16;" parent="ByMqFv9Bi4hKXvn-hJ8M-167" vertex="1">
          <mxGeometry width="44" height="27" as="geometry">
            <mxRectangle width="44" height="27" as="alternateBounds" />
          </mxGeometry>
        </mxCell>
        <mxCell id="ByMqFv9Bi4hKXvn-hJ8M-169" value="ly3" style="shape=partialRectangle;html=1;whiteSpace=wrap;connectable=0;strokeColor=inherit;overflow=hidden;fillColor=none;top=0;left=0;bottom=0;right=0;pointerEvents=1;fontSize=16;" parent="ByMqFv9Bi4hKXvn-hJ8M-167" vertex="1">
          <mxGeometry x="44" width="61" height="27" as="geometry">
            <mxRectangle width="61" height="27" as="alternateBounds" />
          </mxGeometry>
        </mxCell>
        <mxCell id="ByMqFv9Bi4hKXvn-hJ8M-170" value="" style="shape=tableRow;horizontal=0;startSize=0;swimlaneHead=0;swimlaneBody=0;strokeColor=inherit;top=0;left=0;bottom=0;right=0;collapsible=0;dropTarget=0;fillColor=none;points=[[0,0.5],[1,0.5]];portConstraint=eastwest;fontSize=16;" parent="ByMqFv9Bi4hKXvn-hJ8M-163" vertex="1">
          <mxGeometry y="87" width="105" height="24" as="geometry" />
        </mxCell>
        <mxCell id="ByMqFv9Bi4hKXvn-hJ8M-171" value="age:5" style="shape=partialRectangle;html=1;whiteSpace=wrap;connectable=0;strokeColor=inherit;overflow=hidden;fillColor=none;top=0;left=0;bottom=0;right=0;pointerEvents=1;fontSize=16;" parent="ByMqFv9Bi4hKXvn-hJ8M-170" vertex="1">
          <mxGeometry width="44" height="24" as="geometry">
            <mxRectangle width="44" height="24" as="alternateBounds" />
          </mxGeometry>
        </mxCell>
        <mxCell id="ByMqFv9Bi4hKXvn-hJ8M-172" value="ly5" style="shape=partialRectangle;html=1;whiteSpace=wrap;connectable=0;strokeColor=inherit;overflow=hidden;fillColor=none;top=0;left=0;bottom=0;right=0;pointerEvents=1;fontSize=16;" parent="ByMqFv9Bi4hKXvn-hJ8M-170" vertex="1">
          <mxGeometry x="44" width="61" height="24" as="geometry">
            <mxRectangle width="61" height="24" as="alternateBounds" />
          </mxGeometry>
        </mxCell>
        <mxCell id="ByMqFv9Bi4hKXvn-hJ8M-173" value="Шард 1 - вторичный сервер" style="text;strokeColor=none;align=center;fillColor=none;html=1;verticalAlign=middle;whiteSpace=wrap;rounded=0;" parent="1" vertex="1">
          <mxGeometry x="215" y="700" width="140" height="30" as="geometry" />
        </mxCell>
        <mxCell id="ByMqFv9Bi4hKXvn-hJ8M-174" value="Шард 2 - первичный сервер" style="text;strokeColor=none;align=center;fillColor=none;html=1;verticalAlign=middle;whiteSpace=wrap;rounded=0;" parent="1" vertex="1">
          <mxGeometry x="500" y="250" width="140" height="30" as="geometry" />
        </mxCell>
        <mxCell id="ByMqFv9Bi4hKXvn-hJ8M-211" style="edgeStyle=orthogonalEdgeStyle;rounded=0;orthogonalLoop=1;jettySize=auto;html=1;entryX=0.75;entryY=1;entryDx=0;entryDy=0;" parent="1" source="ByMqFv9Bi4hKXvn-hJ8M-187" target="ByMqFv9Bi4hKXvn-hJ8M-129" edge="1">
          <mxGeometry relative="1" as="geometry" />
        </mxCell>
        <mxCell id="ByMqFv9Bi4hKXvn-hJ8M-187" value="" style="shape=cylinder3;whiteSpace=wrap;html=1;boundedLbl=1;backgroundOutline=1;size=15;" parent="1" vertex="1">
          <mxGeometry x="474.75" y="470" width="210" height="190" as="geometry" />
        </mxCell>
        <mxCell id="ByMqFv9Bi4hKXvn-hJ8M-188" value="Шард 2 - вторичный сервер" style="text;strokeColor=none;align=center;fillColor=none;html=1;verticalAlign=middle;whiteSpace=wrap;rounded=0;" parent="1" vertex="1">
          <mxGeometry x="514.25" y="470" width="140" height="30" as="geometry" />
        </mxCell>
        <mxCell id="ByMqFv9Bi4hKXvn-hJ8M-189" value="helloDoc" style="shape=table;startSize=30;container=1;collapsible=0;childLayout=tableLayout;strokeColor=default;fontSize=16;" parent="1" vertex="1">
          <mxGeometry x="534" y="530" width="100.5" height="110" as="geometry" />
        </mxCell>
        <mxCell id="ByMqFv9Bi4hKXvn-hJ8M-190" value="" style="shape=tableRow;horizontal=0;startSize=0;swimlaneHead=0;swimlaneBody=0;strokeColor=inherit;top=0;left=0;bottom=0;right=0;collapsible=0;dropTarget=0;fillColor=none;points=[[0,0.5],[1,0.5]];portConstraint=eastwest;fontSize=16;" parent="ByMqFv9Bi4hKXvn-hJ8M-189" vertex="1">
          <mxGeometry y="30" width="100.5" height="27" as="geometry" />
        </mxCell>
        <mxCell id="ByMqFv9Bi4hKXvn-hJ8M-191" value="age:2" style="shape=partialRectangle;html=1;whiteSpace=wrap;connectable=0;strokeColor=inherit;overflow=hidden;fillColor=none;top=0;left=0;bottom=0;right=0;pointerEvents=1;fontSize=16;" parent="ByMqFv9Bi4hKXvn-hJ8M-190" vertex="1">
          <mxGeometry width="63" height="27" as="geometry">
            <mxRectangle width="63" height="27" as="alternateBounds" />
          </mxGeometry>
        </mxCell>
        <mxCell id="ByMqFv9Bi4hKXvn-hJ8M-192" value="ly2" style="shape=partialRectangle;html=1;whiteSpace=wrap;connectable=0;strokeColor=inherit;overflow=hidden;fillColor=none;top=0;left=0;bottom=0;right=0;pointerEvents=1;fontSize=16;" parent="ByMqFv9Bi4hKXvn-hJ8M-190" vertex="1">
          <mxGeometry x="63" width="38" height="27" as="geometry">
            <mxRectangle width="38" height="27" as="alternateBounds" />
          </mxGeometry>
        </mxCell>
        <mxCell id="ByMqFv9Bi4hKXvn-hJ8M-193" value="" style="shape=tableRow;horizontal=0;startSize=0;swimlaneHead=0;swimlaneBody=0;strokeColor=inherit;top=0;left=0;bottom=0;right=0;collapsible=0;dropTarget=0;fillColor=none;points=[[0,0.5],[1,0.5]];portConstraint=eastwest;fontSize=16;" parent="ByMqFv9Bi4hKXvn-hJ8M-189" vertex="1">
          <mxGeometry y="57" width="100.5" height="26" as="geometry" />
        </mxCell>
        <mxCell id="ByMqFv9Bi4hKXvn-hJ8M-194" value="age:4" style="shape=partialRectangle;html=1;whiteSpace=wrap;connectable=0;strokeColor=inherit;overflow=hidden;fillColor=none;top=0;left=0;bottom=0;right=0;pointerEvents=1;fontSize=16;" parent="ByMqFv9Bi4hKXvn-hJ8M-193" vertex="1">
          <mxGeometry width="63" height="26" as="geometry">
            <mxRectangle width="63" height="26" as="alternateBounds" />
          </mxGeometry>
        </mxCell>
        <mxCell id="ByMqFv9Bi4hKXvn-hJ8M-195" value="ly4" style="shape=partialRectangle;html=1;whiteSpace=wrap;connectable=0;strokeColor=inherit;overflow=hidden;fillColor=none;top=0;left=0;bottom=0;right=0;pointerEvents=1;fontSize=16;" parent="ByMqFv9Bi4hKXvn-hJ8M-193" vertex="1">
          <mxGeometry x="63" width="38" height="26" as="geometry">
            <mxRectangle width="38" height="26" as="alternateBounds" />
          </mxGeometry>
        </mxCell>
        <mxCell id="ByMqFv9Bi4hKXvn-hJ8M-196" value="" style="shape=tableRow;horizontal=0;startSize=0;swimlaneHead=0;swimlaneBody=0;strokeColor=inherit;top=0;left=0;bottom=0;right=0;collapsible=0;dropTarget=0;fillColor=none;points=[[0,0.5],[1,0.5]];portConstraint=eastwest;fontSize=16;" parent="ByMqFv9Bi4hKXvn-hJ8M-189" vertex="1">
          <mxGeometry y="83" width="100.5" height="27" as="geometry" />
        </mxCell>
        <mxCell id="ByMqFv9Bi4hKXvn-hJ8M-197" value="age:6" style="shape=partialRectangle;html=1;whiteSpace=wrap;connectable=0;strokeColor=inherit;overflow=hidden;fillColor=none;top=0;left=0;bottom=0;right=0;pointerEvents=1;fontSize=16;" parent="ByMqFv9Bi4hKXvn-hJ8M-196" vertex="1">
          <mxGeometry width="63" height="27" as="geometry">
            <mxRectangle width="63" height="27" as="alternateBounds" />
          </mxGeometry>
        </mxCell>
        <mxCell id="ByMqFv9Bi4hKXvn-hJ8M-198" value="ly6" style="shape=partialRectangle;html=1;whiteSpace=wrap;connectable=0;strokeColor=inherit;overflow=hidden;fillColor=none;top=0;left=0;bottom=0;right=0;pointerEvents=1;fontSize=16;" parent="ByMqFv9Bi4hKXvn-hJ8M-196" vertex="1">
          <mxGeometry x="63" width="38" height="27" as="geometry">
            <mxRectangle width="38" height="27" as="alternateBounds" />
          </mxGeometry>
        </mxCell>
        <mxCell id="ByMqFv9Bi4hKXvn-hJ8M-199" value="" style="shape=cylinder3;whiteSpace=wrap;html=1;boundedLbl=1;backgroundOutline=1;size=15;" parent="1" vertex="1">
          <mxGeometry x="480" y="700" width="210" height="190" as="geometry" />
        </mxCell>
        <mxCell id="ByMqFv9Bi4hKXvn-hJ8M-200" value="Шард 2 - вторичный сервер" style="text;strokeColor=none;align=center;fillColor=none;html=1;verticalAlign=middle;whiteSpace=wrap;rounded=0;" parent="1" vertex="1">
          <mxGeometry x="519.5" y="700" width="140" height="30" as="geometry" />
        </mxCell>
        <mxCell id="ByMqFv9Bi4hKXvn-hJ8M-201" value="helloDoc" style="shape=table;startSize=30;container=1;collapsible=0;childLayout=tableLayout;strokeColor=default;fontSize=16;" parent="1" vertex="1">
          <mxGeometry x="539.25" y="760" width="100.5" height="110" as="geometry" />
        </mxCell>
        <mxCell id="ByMqFv9Bi4hKXvn-hJ8M-202" value="" style="shape=tableRow;horizontal=0;startSize=0;swimlaneHead=0;swimlaneBody=0;strokeColor=inherit;top=0;left=0;bottom=0;right=0;collapsible=0;dropTarget=0;fillColor=none;points=[[0,0.5],[1,0.5]];portConstraint=eastwest;fontSize=16;" parent="ByMqFv9Bi4hKXvn-hJ8M-201" vertex="1">
          <mxGeometry y="30" width="100.5" height="27" as="geometry" />
        </mxCell>
        <mxCell id="ByMqFv9Bi4hKXvn-hJ8M-203" value="age:2" style="shape=partialRectangle;html=1;whiteSpace=wrap;connectable=0;strokeColor=inherit;overflow=hidden;fillColor=none;top=0;left=0;bottom=0;right=0;pointerEvents=1;fontSize=16;" parent="ByMqFv9Bi4hKXvn-hJ8M-202" vertex="1">
          <mxGeometry width="63" height="27" as="geometry">
            <mxRectangle width="63" height="27" as="alternateBounds" />
          </mxGeometry>
        </mxCell>
        <mxCell id="ByMqFv9Bi4hKXvn-hJ8M-204" value="ly2" style="shape=partialRectangle;html=1;whiteSpace=wrap;connectable=0;strokeColor=inherit;overflow=hidden;fillColor=none;top=0;left=0;bottom=0;right=0;pointerEvents=1;fontSize=16;" parent="ByMqFv9Bi4hKXvn-hJ8M-202" vertex="1">
          <mxGeometry x="63" width="38" height="27" as="geometry">
            <mxRectangle width="38" height="27" as="alternateBounds" />
          </mxGeometry>
        </mxCell>
        <mxCell id="ByMqFv9Bi4hKXvn-hJ8M-205" value="" style="shape=tableRow;horizontal=0;startSize=0;swimlaneHead=0;swimlaneBody=0;strokeColor=inherit;top=0;left=0;bottom=0;right=0;collapsible=0;dropTarget=0;fillColor=none;points=[[0,0.5],[1,0.5]];portConstraint=eastwest;fontSize=16;" parent="ByMqFv9Bi4hKXvn-hJ8M-201" vertex="1">
          <mxGeometry y="57" width="100.5" height="26" as="geometry" />
        </mxCell>
        <mxCell id="ByMqFv9Bi4hKXvn-hJ8M-206" value="age:4" style="shape=partialRectangle;html=1;whiteSpace=wrap;connectable=0;strokeColor=inherit;overflow=hidden;fillColor=none;top=0;left=0;bottom=0;right=0;pointerEvents=1;fontSize=16;" parent="ByMqFv9Bi4hKXvn-hJ8M-205" vertex="1">
          <mxGeometry width="63" height="26" as="geometry">
            <mxRectangle width="63" height="26" as="alternateBounds" />
          </mxGeometry>
        </mxCell>
        <mxCell id="ByMqFv9Bi4hKXvn-hJ8M-207" value="ly4" style="shape=partialRectangle;html=1;whiteSpace=wrap;connectable=0;strokeColor=inherit;overflow=hidden;fillColor=none;top=0;left=0;bottom=0;right=0;pointerEvents=1;fontSize=16;" parent="ByMqFv9Bi4hKXvn-hJ8M-205" vertex="1">
          <mxGeometry x="63" width="38" height="26" as="geometry">
            <mxRectangle width="38" height="26" as="alternateBounds" />
          </mxGeometry>
        </mxCell>
        <mxCell id="ByMqFv9Bi4hKXvn-hJ8M-208" value="" style="shape=tableRow;horizontal=0;startSize=0;swimlaneHead=0;swimlaneBody=0;strokeColor=inherit;top=0;left=0;bottom=0;right=0;collapsible=0;dropTarget=0;fillColor=none;points=[[0,0.5],[1,0.5]];portConstraint=eastwest;fontSize=16;" parent="ByMqFv9Bi4hKXvn-hJ8M-201" vertex="1">
          <mxGeometry y="83" width="100.5" height="27" as="geometry" />
        </mxCell>
        <mxCell id="ByMqFv9Bi4hKXvn-hJ8M-209" value="age:6" style="shape=partialRectangle;html=1;whiteSpace=wrap;connectable=0;strokeColor=inherit;overflow=hidden;fillColor=none;top=0;left=0;bottom=0;right=0;pointerEvents=1;fontSize=16;" parent="ByMqFv9Bi4hKXvn-hJ8M-208" vertex="1">
          <mxGeometry width="63" height="27" as="geometry">
            <mxRectangle width="63" height="27" as="alternateBounds" />
          </mxGeometry>
        </mxCell>
        <mxCell id="ByMqFv9Bi4hKXvn-hJ8M-210" value="ly6" style="shape=partialRectangle;html=1;whiteSpace=wrap;connectable=0;strokeColor=inherit;overflow=hidden;fillColor=none;top=0;left=0;bottom=0;right=0;pointerEvents=1;fontSize=16;" parent="ByMqFv9Bi4hKXvn-hJ8M-208" vertex="1">
          <mxGeometry x="63" width="38" height="27" as="geometry">
            <mxRectangle width="38" height="27" as="alternateBounds" />
          </mxGeometry>
        </mxCell>
        <mxCell id="ByMqFv9Bi4hKXvn-hJ8M-212" style="edgeStyle=orthogonalEdgeStyle;rounded=0;orthogonalLoop=1;jettySize=auto;html=1;entryX=0.655;entryY=0.999;entryDx=0;entryDy=0;entryPerimeter=0;" parent="1" source="ByMqFv9Bi4hKXvn-hJ8M-199" target="ByMqFv9Bi4hKXvn-hJ8M-129" edge="1">
          <mxGeometry relative="1" as="geometry">
            <Array as="points">
              <mxPoint x="788" y="770" />
            </Array>
          </mxGeometry>
        </mxCell>
        <mxCell id="ByMqFv9Bi4hKXvn-hJ8M-214" style="edgeStyle=orthogonalEdgeStyle;rounded=0;orthogonalLoop=1;jettySize=auto;html=1;entryX=0;entryY=0.5;entryDx=0;entryDy=0;entryPerimeter=0;shape=link;" parent="1" source="ByMqFv9Bi4hKXvn-hJ8M-150" target="ByMqFv9Bi4hKXvn-hJ8M-187" edge="1">
          <mxGeometry relative="1" as="geometry" />
        </mxCell>
        <mxCell id="ByMqFv9Bi4hKXvn-hJ8M-220" value="Redis" style="rounded=1;whiteSpace=wrap;html=1;" parent="1" vertex="1">
          <mxGeometry x="590" y="-30" width="120" height="60" as="geometry" />
        </mxCell>
        <mxCell id="ByMqFv9Bi4hKXvn-hJ8M-226" value="" style="shape=curlyBracket;whiteSpace=wrap;html=1;rounded=1;labelPosition=left;verticalLabelPosition=middle;align=right;verticalAlign=middle;" parent="1" vertex="1">
          <mxGeometry x="120" y="250" width="20" height="630" as="geometry" />
        </mxCell>
        <mxCell id="ByMqFv9Bi4hKXvn-hJ8M-227" value="Реплики" style="text;strokeColor=none;align=center;fillColor=none;html=1;verticalAlign=middle;whiteSpace=wrap;rounded=0;" parent="1" vertex="1">
          <mxGeometry x="50" y="550" width="60" height="30" as="geometry" />
        </mxCell>
        <mxCell id="MkLCPHEsa8idqYGvZBbp-1" value="&lt;h3 style=&quot;font-weight: ; line-height: ; margin: var(--size-800, calc(var(--base-unit, calc(1rem * var(--base-ratio, 1))) * 2.5)) 0 var(--size-200, calc(var(--base-unit, calc(1rem * var(--base-ratio, 1))) * 0.75)); font-size: ; box-sizing: inherit; font-style: normal; font-variant-ligatures: normal; font-variant-caps: normal; font-variant-numeric: ; font-variant-east-asian: ; font-variant-alternates: ; font-variant-position: ; font-variant-emoji: ; font-stretch: ; font-family: &amp;quot;YS Text&amp;quot;, sans-serif; font-optical-sizing: ; font-size-adjust: ; font-kerning: ; font-feature-settings: ; font-variation-settings: ; color: rgba(0, 0, 0, 0.85); letter-spacing: normal; orphans: 2; text-align: start; text-indent: 0px; text-transform: none; widows: 2; word-spacing: 0px; -webkit-text-stroke-width: 0px; white-space: normal; background-color: rgb(255, 255, 255); text-decoration-thickness: initial; text-decoration-style: initial; text-decoration-color: initial;&quot;&gt;Redis Cluster&lt;/h3&gt;" style="text;whiteSpace=wrap;html=1;" parent="1" vertex="1">
          <mxGeometry x="659.5" y="-140" width="120" height="90" as="geometry" />
        </mxCell>
        <mxCell id="MkLCPHEsa8idqYGvZBbp-4" value="Redis" style="rounded=1;whiteSpace=wrap;html=1;" parent="1" vertex="1">
          <mxGeometry x="730" y="-30" width="120" height="60" as="geometry" />
        </mxCell>
        <mxCell id="MkLCPHEsa8idqYGvZBbp-5" value="Redis" style="rounded=1;whiteSpace=wrap;html=1;" parent="1" vertex="1">
          <mxGeometry x="779.5" y="-100" width="120" height="60" as="geometry" />
        </mxCell>
        <mxCell id="Q93zhfyF3jCMq2FZPv7L-1" value="API GATEWAY" style="rounded=1;whiteSpace=wrap;html=1;" vertex="1" parent="1">
          <mxGeometry x="360" y="-360" width="120" height="60" as="geometry" />
        </mxCell>
        <mxCell id="Q93zhfyF3jCMq2FZPv7L-3" value="pymongo-api-2" style="rounded=1;whiteSpace=wrap;html=1;" vertex="1" parent="1">
          <mxGeometry x="295" y="-160" width="80" height="40" as="geometry" />
        </mxCell>
        <mxCell id="Q93zhfyF3jCMq2FZPv7L-4" value="pymongo-api-1" style="rounded=1;whiteSpace=wrap;html=1;" vertex="1" parent="1">
          <mxGeometry x="200" y="-160" width="80" height="40" as="geometry" />
        </mxCell>
        <mxCell id="Q93zhfyF3jCMq2FZPv7L-5" value="pymongo-api-n" style="rounded=1;whiteSpace=wrap;html=1;" vertex="1" parent="1">
          <mxGeometry x="292.5" y="-90" width="80" height="40" as="geometry" />
        </mxCell>
        <mxCell id="Q93zhfyF3jCMq2FZPv7L-6" style="edgeStyle=orthogonalEdgeStyle;rounded=0;orthogonalLoop=1;jettySize=auto;html=1;entryX=1.003;entryY=0.385;entryDx=0;entryDy=0;entryPerimeter=0;" edge="1" parent="1" source="MkLCPHEsa8idqYGvZBbp-2" target="Q93zhfyF3jCMq2FZPv7L-2">
          <mxGeometry relative="1" as="geometry" />
        </mxCell>
        <mxCell id="Q93zhfyF3jCMq2FZPv7L-11" style="edgeStyle=orthogonalEdgeStyle;rounded=0;orthogonalLoop=1;jettySize=auto;html=1;entryX=1;entryY=0.5;entryDx=0;entryDy=0;" edge="1" parent="1" source="Q93zhfyF3jCMq2FZPv7L-7" target="Q93zhfyF3jCMq2FZPv7L-1">
          <mxGeometry relative="1" as="geometry">
            <mxPoint x="650" y="-330" as="targetPoint" />
            <Array as="points">
              <mxPoint x="650" y="-330" />
            </Array>
          </mxGeometry>
        </mxCell>
        <mxCell id="Q93zhfyF3jCMq2FZPv7L-7" value="Consul (Service Discovery)" style="rounded=1;whiteSpace=wrap;html=1;" vertex="1" parent="1">
          <mxGeometry x="590" y="-220" width="120" height="60" as="geometry" />
        </mxCell>
        <mxCell id="Q93zhfyF3jCMq2FZPv7L-10" style="edgeStyle=orthogonalEdgeStyle;rounded=0;orthogonalLoop=1;jettySize=auto;html=1;entryX=0.454;entryY=0.015;entryDx=0;entryDy=0;entryPerimeter=0;" edge="1" parent="1" source="Q93zhfyF3jCMq2FZPv7L-1" target="Q93zhfyF3jCMq2FZPv7L-2">
          <mxGeometry relative="1" as="geometry" />
        </mxCell>
        <mxCell id="Q93zhfyF3jCMq2FZPv7L-12" value="CDN-1" style="rounded=1;whiteSpace=wrap;html=1;" vertex="1" parent="1">
          <mxGeometry x="207.5" y="-470" width="120" height="60" as="geometry" />
        </mxCell>
        <mxCell id="Q93zhfyF3jCMq2FZPv7L-14" value="CDN-2" style="rounded=1;whiteSpace=wrap;html=1;" vertex="1" parent="1">
          <mxGeometry x="510" y="-470" width="120" height="60" as="geometry" />
        </mxCell>
        <mxCell id="Q93zhfyF3jCMq2FZPv7L-19" style="edgeStyle=orthogonalEdgeStyle;rounded=0;orthogonalLoop=1;jettySize=auto;html=1;fillColor=#3333FF;curved=1;" edge="1" parent="1" source="Q93zhfyF3jCMq2FZPv7L-15" target="Q93zhfyF3jCMq2FZPv7L-17">
          <mxGeometry relative="1" as="geometry" />
        </mxCell>
        <mxCell id="Q93zhfyF3jCMq2FZPv7L-27" style="edgeStyle=orthogonalEdgeStyle;rounded=0;orthogonalLoop=1;jettySize=auto;html=1;curved=1;" edge="1" parent="1" source="Q93zhfyF3jCMq2FZPv7L-15" target="Q93zhfyF3jCMq2FZPv7L-12">
          <mxGeometry relative="1" as="geometry">
            <Array as="points">
              <mxPoint x="260" y="-560" />
              <mxPoint x="230" y="-560" />
            </Array>
          </mxGeometry>
        </mxCell>
        <mxCell id="Q93zhfyF3jCMq2FZPv7L-30" value="Запрос статики" style="edgeLabel;html=1;align=center;verticalAlign=middle;resizable=0;points=[];" vertex="1" connectable="0" parent="Q93zhfyF3jCMq2FZPv7L-27">
          <mxGeometry x="0.0392" y="-1" relative="1" as="geometry">
            <mxPoint as="offset" />
          </mxGeometry>
        </mxCell>
        <mxCell id="Q93zhfyF3jCMq2FZPv7L-15" value="Actor-1" style="shape=umlActor;verticalLabelPosition=bottom;verticalAlign=top;html=1;outlineConnect=0;" vertex="1" parent="1">
          <mxGeometry x="245" y="-710" width="30" height="60" as="geometry" />
        </mxCell>
        <mxCell id="Q93zhfyF3jCMq2FZPv7L-21" style="edgeStyle=orthogonalEdgeStyle;rounded=0;orthogonalLoop=1;jettySize=auto;html=1;curved=1;fillColor=#3333FF;" edge="1" parent="1" source="Q93zhfyF3jCMq2FZPv7L-16" target="Q93zhfyF3jCMq2FZPv7L-17">
          <mxGeometry relative="1" as="geometry" />
        </mxCell>
        <mxCell id="Q93zhfyF3jCMq2FZPv7L-28" style="edgeStyle=orthogonalEdgeStyle;rounded=0;orthogonalLoop=1;jettySize=auto;html=1;curved=1;" edge="1" parent="1" source="Q93zhfyF3jCMq2FZPv7L-16" target="Q93zhfyF3jCMq2FZPv7L-14">
          <mxGeometry relative="1" as="geometry">
            <Array as="points">
              <mxPoint x="565" y="-555" />
              <mxPoint x="620" y="-555" />
            </Array>
          </mxGeometry>
        </mxCell>
        <mxCell id="Q93zhfyF3jCMq2FZPv7L-31" value="Запрос статики" style="edgeLabel;html=1;align=center;verticalAlign=middle;resizable=0;points=[];" vertex="1" connectable="0" parent="Q93zhfyF3jCMq2FZPv7L-28">
          <mxGeometry x="-0.0144" y="1" relative="1" as="geometry">
            <mxPoint as="offset" />
          </mxGeometry>
        </mxCell>
        <mxCell id="Q93zhfyF3jCMq2FZPv7L-16" value="Actor-2" style="shape=umlActor;verticalLabelPosition=bottom;verticalAlign=top;html=1;outlineConnect=0;" vertex="1" parent="1">
          <mxGeometry x="550" y="-700" width="30" height="60" as="geometry" />
        </mxCell>
        <mxCell id="Q93zhfyF3jCMq2FZPv7L-20" style="edgeStyle=orthogonalEdgeStyle;rounded=0;orthogonalLoop=1;jettySize=auto;html=1;" edge="1" parent="1" source="Q93zhfyF3jCMq2FZPv7L-17" target="Q93zhfyF3jCMq2FZPv7L-1">
          <mxGeometry relative="1" as="geometry">
            <Array as="points">
              <mxPoint x="420" y="-470" />
              <mxPoint x="420" y="-470" />
            </Array>
          </mxGeometry>
        </mxCell>
        <mxCell id="Q93zhfyF3jCMq2FZPv7L-22" style="edgeStyle=orthogonalEdgeStyle;rounded=0;orthogonalLoop=1;jettySize=auto;html=1;curved=1;" edge="1" parent="1" source="Q93zhfyF3jCMq2FZPv7L-17" target="Q93zhfyF3jCMq2FZPv7L-12">
          <mxGeometry relative="1" as="geometry" />
        </mxCell>
        <mxCell id="Q93zhfyF3jCMq2FZPv7L-26" style="edgeStyle=orthogonalEdgeStyle;rounded=0;orthogonalLoop=1;jettySize=auto;html=1;curved=1;" edge="1" parent="1" source="Q93zhfyF3jCMq2FZPv7L-17" target="Q93zhfyF3jCMq2FZPv7L-14">
          <mxGeometry relative="1" as="geometry" />
        </mxCell>
        <mxCell id="Q93zhfyF3jCMq2FZPv7L-17" value="Веб-сервер" style="rounded=1;whiteSpace=wrap;html=1;" vertex="1" parent="1">
          <mxGeometry x="365" y="-560" width="120" height="60" as="geometry" />
        </mxCell>
      </root>
    </mxGraphModel>
  </diagram>
</mxfile>
